# xmcd
#
# Track frame offsets:
#	150
#	7576
#	21359
#	37872
#	51629
#	69698
#	84550
#	95542
#	114063
#	126631
#
# Disc length: 1863 seconds
#
# Revision: 1
# Processed by: cddbd v1.5.2PL0 Copyright (c) Steve Scherf et al.
# Submitted via: audiograbber 1.83.01
#
DISCID=7c07450a
DTITLE=Gail Starr - Keepin' The Campfires Burnin'
DYEAR=2003
DGENRE=Country
TTITLE0=Can't do Much of Nothin'
TTITLE1=Tavellin' Light
TTITLE2=God must be a Cowboy
TTITLE3=Old Paint
TTITLE4=Waitin' for a Train
TTITLE5=Crazy Cowboy Dream
TTITLE6=Paint the Town
TTITLE7=Paint the Town Beige
TTITLE8=Tumblin' Tumbleweed
TTITLE9=Home on the Range
EXTD=Trail Western Entertainment, Carefree AZ\nProduced by Gail Starr and Mark 
EXTD=Dollar
EXTT0=
EXTT1=
EXTT2=
EXTT3=
EXTT4=
EXTT5=
EXTT6=
EXTT7=Mandolin by Steve Shockley
EXTT8=
EXTT9=
PLAYORDER=
